<mxfile host="app.diagrams.net" modified="2021-05-13T02:05:56.940Z" agent="5.0 (Windows)" etag="xgLcBqE7L6DHaO1wZKZw" version="14.6.12" type="github">
  <diagram id="z_sz5BVX47ozAs6QIKGB" name="Page-1">
    <mxGraphModel dx="1146" dy="554" grid="1" gridSize="10" guides="1" tooltips="1" connect="1" arrows="1" fold="1" page="1" pageScale="1" pageWidth="850" pageHeight="1100" math="0" shadow="0">
      <root>
        <mxCell id="0" />
        <mxCell id="1" parent="0" />
        <mxCell id="fGQBoOvK3uzryHQ_SQ_X-7" value="" style="rounded=0;whiteSpace=wrap;html=1;fillColor=none;" parent="1" vertex="1">
          <mxGeometry x="280" y="140" width="160" height="280" as="geometry" />
        </mxCell>
        <mxCell id="fGQBoOvK3uzryHQ_SQ_X-1" value="User" style="shape=umlActor;verticalLabelPosition=bottom;verticalAlign=top;html=1;" parent="1" vertex="1">
          <mxGeometry x="160" y="240" width="40" height="80" as="geometry" />
        </mxCell>
        <mxCell id="fGQBoOvK3uzryHQ_SQ_X-23" style="edgeStyle=orthogonalEdgeStyle;rounded=0;orthogonalLoop=1;jettySize=auto;html=1;exitX=0.5;exitY=1;exitDx=0;exitDy=0;dashed=1;" parent="1" source="fGQBoOvK3uzryHQ_SQ_X-4" target="fGQBoOvK3uzryHQ_SQ_X-10" edge="1">
          <mxGeometry relative="1" as="geometry" />
        </mxCell>
        <mxCell id="fGQBoOvK3uzryHQ_SQ_X-24" style="edgeStyle=orthogonalEdgeStyle;rounded=0;orthogonalLoop=1;jettySize=auto;html=1;exitX=1;exitY=0.5;exitDx=0;exitDy=0;dashed=1;" parent="1" source="fGQBoOvK3uzryHQ_SQ_X-4" target="fGQBoOvK3uzryHQ_SQ_X-11" edge="1">
          <mxGeometry relative="1" as="geometry" />
        </mxCell>
        <mxCell id="fGQBoOvK3uzryHQ_SQ_X-4" value="Input Work Miles" style="ellipse;whiteSpace=wrap;html=1;" parent="1" vertex="1">
          <mxGeometry x="300" y="180" width="120" height="40" as="geometry" />
        </mxCell>
        <mxCell id="fGQBoOvK3uzryHQ_SQ_X-8" value="Work Mileage Tracker" style="text;html=1;strokeColor=none;fillColor=none;align=center;verticalAlign=middle;whiteSpace=wrap;rounded=0;" parent="1" vertex="1">
          <mxGeometry x="280" y="140" width="160" height="20" as="geometry" />
        </mxCell>
        <mxCell id="fGQBoOvK3uzryHQ_SQ_X-26" style="edgeStyle=orthogonalEdgeStyle;rounded=0;orthogonalLoop=1;jettySize=auto;html=1;exitX=1;exitY=0.5;exitDx=0;exitDy=0;dashed=1;" parent="1" source="fGQBoOvK3uzryHQ_SQ_X-9" target="fGQBoOvK3uzryHQ_SQ_X-16" edge="1">
          <mxGeometry relative="1" as="geometry" />
        </mxCell>
        <mxCell id="fGQBoOvK3uzryHQ_SQ_X-9" value="Google Map Integration" style="ellipse;whiteSpace=wrap;html=1;" parent="1" vertex="1">
          <mxGeometry x="300" y="340" width="120" height="40" as="geometry" />
        </mxCell>
        <mxCell id="fGQBoOvK3uzryHQ_SQ_X-25" style="edgeStyle=orthogonalEdgeStyle;rounded=0;orthogonalLoop=1;jettySize=auto;html=1;exitX=1;exitY=0.5;exitDx=0;exitDy=0;dashed=1;" parent="1" source="fGQBoOvK3uzryHQ_SQ_X-10" target="fGQBoOvK3uzryHQ_SQ_X-11" edge="1">
          <mxGeometry relative="1" as="geometry">
            <mxPoint x="480" y="230" as="targetPoint" />
            <Array as="points">
              <mxPoint x="420" y="240" />
              <mxPoint x="480" y="240" />
              <mxPoint x="480" y="200" />
            </Array>
          </mxGeometry>
        </mxCell>
        <mxCell id="fGQBoOvK3uzryHQ_SQ_X-27" style="edgeStyle=orthogonalEdgeStyle;rounded=0;orthogonalLoop=1;jettySize=auto;html=1;exitX=0.5;exitY=1;exitDx=0;exitDy=0;entryX=0.5;entryY=0;entryDx=0;entryDy=0;dashed=1;" parent="1" source="fGQBoOvK3uzryHQ_SQ_X-10" target="fGQBoOvK3uzryHQ_SQ_X-9" edge="1">
          <mxGeometry relative="1" as="geometry" />
        </mxCell>
        <mxCell id="fGQBoOvK3uzryHQ_SQ_X-10" value="View Records" style="ellipse;whiteSpace=wrap;html=1;" parent="1" vertex="1">
          <mxGeometry x="300" y="260" width="120" height="40" as="geometry" />
        </mxCell>
        <mxCell id="fGQBoOvK3uzryHQ_SQ_X-11" value="&lt;div&gt;Database&lt;/div&gt;&lt;div&gt;&lt;br&gt;&lt;/div&gt;" style="shape=umlActor;verticalLabelPosition=bottom;verticalAlign=top;html=1;outlineConnect=0;fillColor=none;" parent="1" vertex="1">
          <mxGeometry x="520" y="160" width="40" height="80" as="geometry" />
        </mxCell>
        <mxCell id="fGQBoOvK3uzryHQ_SQ_X-12" value="" style="endArrow=none;html=1;entryX=0;entryY=0.5;entryDx=0;entryDy=0;" parent="1" source="fGQBoOvK3uzryHQ_SQ_X-1" target="fGQBoOvK3uzryHQ_SQ_X-4" edge="1">
          <mxGeometry width="50" height="50" relative="1" as="geometry">
            <mxPoint x="270" y="320" as="sourcePoint" />
            <mxPoint x="320" y="270" as="targetPoint" />
          </mxGeometry>
        </mxCell>
        <mxCell id="fGQBoOvK3uzryHQ_SQ_X-13" value="" style="endArrow=none;html=1;entryX=0;entryY=0.5;entryDx=0;entryDy=0;" parent="1" source="fGQBoOvK3uzryHQ_SQ_X-1" target="fGQBoOvK3uzryHQ_SQ_X-9" edge="1">
          <mxGeometry width="50" height="50" relative="1" as="geometry">
            <mxPoint x="270" y="320" as="sourcePoint" />
            <mxPoint x="320" y="270" as="targetPoint" />
          </mxGeometry>
        </mxCell>
        <mxCell id="fGQBoOvK3uzryHQ_SQ_X-14" value="" style="endArrow=none;html=1;entryX=0;entryY=0.5;entryDx=0;entryDy=0;" parent="1" source="fGQBoOvK3uzryHQ_SQ_X-1" target="fGQBoOvK3uzryHQ_SQ_X-10" edge="1">
          <mxGeometry width="50" height="50" relative="1" as="geometry">
            <mxPoint x="270" y="320" as="sourcePoint" />
            <mxPoint x="320" y="270" as="targetPoint" />
          </mxGeometry>
        </mxCell>
        <mxCell id="fGQBoOvK3uzryHQ_SQ_X-16" value="Google Maps" style="shape=umlActor;verticalLabelPosition=bottom;verticalAlign=top;html=1;outlineConnect=0;fillColor=none;" parent="1" vertex="1">
          <mxGeometry x="520" y="320" width="40" height="80" as="geometry" />
        </mxCell>
        <mxCell id="Oy8qPTLb_QG4DMILS2w1-7" style="edgeStyle=orthogonalEdgeStyle;rounded=0;orthogonalLoop=1;jettySize=auto;html=1;exitX=1;exitY=1;exitDx=0;exitDy=0;dashed=1;entryX=0;entryY=0.3333333333333333;entryDx=0;entryDy=0;entryPerimeter=0;" edge="1" parent="1" source="fGQBoOvK3uzryHQ_SQ_X-4" target="fGQBoOvK3uzryHQ_SQ_X-16">
          <mxGeometry relative="1" as="geometry">
            <mxPoint x="370" y="230" as="sourcePoint" />
            <mxPoint x="370" y="270" as="targetPoint" />
          </mxGeometry>
        </mxCell>
      </root>
    </mxGraphModel>
  </diagram>
</mxfile>
